<svg width="521" height="334" viewBox="0 0 521 334" fill="none" xmlns="http://www.w3.org/2000/svg">
<g clip-path="url(#clip0)">
<path d="M44.8761 21.0098H403.679V250.607H44.8761V21.0098Z" fill="#E6E6E6"/>
<path d="M55.136 49.807H393.419V237.024H55.136V49.807Z" fill="white"/>
<path d="M45.0293 20.8066H403.832V36.0368H45.0293V20.8066Z" fill="#6C63FF"/>
<path d="M392.505 31.4159C390.944 31.4159 389.679 30.1521 389.679 28.5931C389.679 27.0341 390.944 25.7702 392.505 25.7702C394.065 25.7702 395.33 27.0341 395.33 28.5931C395.33 30.1521 394.065 31.4159 392.505 31.4159Z" fill="white"/>
<path d="M381.781 31.4159C380.22 31.4159 378.956 30.1521 378.956 28.5931C378.956 27.0341 380.22 25.7702 381.781 25.7702C383.341 25.7702 384.606 27.0341 384.606 28.5931C384.606 30.1521 383.341 31.4159 381.781 31.4159Z" fill="white"/>
<path d="M371.057 31.4159C369.497 31.4159 368.232 30.1521 368.232 28.5931C368.232 27.0341 369.497 25.7702 371.057 25.7702C372.617 25.7702 373.882 27.0341 373.882 28.5931C373.882 30.1521 372.617 31.4159 371.057 31.4159Z" fill="white"/>
<path d="M150.855 67.3422H260.989C261.224 67.3113 261.44 67.196 261.596 67.0179C261.752 66.8397 261.839 66.6109 261.839 66.3739C261.839 66.137 261.752 65.9081 261.596 65.73C261.44 65.5519 261.224 65.4366 260.989 65.4056H150.855C150.62 65.4366 150.404 65.5519 150.248 65.73C150.091 65.9081 150.005 66.137 150.005 66.3739C150.005 66.6109 150.091 66.8397 150.248 67.0179C150.404 67.196 150.62 67.3113 150.855 67.3422V67.3422Z" fill="#CCCCCC"/>
<path d="M227.167 77.9937H297.19C297.425 77.9628 297.641 77.8475 297.798 77.6693C297.954 77.4912 298.04 77.2623 298.04 77.0254C298.04 76.7885 297.954 76.5596 297.798 76.3815C297.641 76.2033 297.425 76.088 297.19 76.0571H227.167C226.932 76.088 226.716 76.2033 226.56 76.3815C226.403 76.5596 226.317 76.7885 226.317 77.0254C226.317 77.2623 226.403 77.4912 226.56 77.6693C226.716 77.8475 226.932 77.9628 227.167 77.9937V77.9937Z" fill="#CCCCCC"/>
<path d="M150.855 78.1874H220.878C221.113 78.1564 221.329 78.0411 221.486 77.863C221.642 77.6848 221.728 77.456 221.728 77.2191C221.728 76.9821 221.642 76.7533 221.486 76.5751C221.329 76.397 221.113 76.2817 220.878 76.2508H150.855C150.62 76.2817 150.404 76.397 150.248 76.5751C150.091 76.7533 150.005 76.9821 150.005 77.2191C150.005 77.456 150.091 77.6848 150.248 77.863C150.404 78.0411 150.62 78.1564 150.855 78.1874H150.855Z" fill="#CCCCCC"/>
<path d="M226.997 88.6451H297.02C297.255 88.6142 297.471 88.4989 297.628 88.3208C297.784 88.1426 297.87 87.9138 297.87 87.6768C297.87 87.4399 297.784 87.211 297.628 87.0329C297.471 86.8548 297.255 86.7395 297.02 86.7085H226.997C226.762 86.7395 226.546 86.8548 226.39 87.0329C226.233 87.211 226.147 87.4399 226.147 87.6768C226.147 87.9138 226.233 88.1426 226.39 88.3208C226.546 88.4989 226.762 88.6142 226.997 88.6451V88.6451Z" fill="#CCCCCC"/>
<path d="M226.827 99.2967H296.85C297.085 99.2657 297.301 99.1504 297.458 98.9723C297.614 98.7941 297.7 98.5653 297.7 98.3284C297.7 98.0914 297.614 97.8626 297.458 97.6844C297.301 97.5063 297.085 97.391 296.85 97.36H226.827C226.592 97.391 226.376 97.5063 226.22 97.6844C226.063 97.8626 225.977 98.0914 225.977 98.3284C225.977 98.5653 226.063 98.7941 226.22 98.9723C226.376 99.1504 226.592 99.2657 226.827 99.2967V99.2967Z" fill="#CCCCCC"/>
<path d="M195.044 88.6451H215.1C215.335 88.6142 215.551 88.4989 215.707 88.3208C215.863 88.1426 215.949 87.9138 215.949 87.6768C215.949 87.4399 215.863 87.211 215.707 87.0329C215.551 86.8548 215.335 86.7395 215.1 86.7085H195.044C194.809 86.7395 194.594 86.8548 194.437 87.0329C194.281 87.211 194.195 87.4399 194.195 87.6768C194.195 87.9138 194.281 88.1426 194.437 88.3208C194.594 88.4989 194.809 88.6142 195.044 88.6451V88.6451Z" fill="#CCCCCC"/>
<path d="M195.044 99.103H215.1C215.335 99.072 215.551 98.9567 215.707 98.7786C215.863 98.6004 215.949 98.3716 215.949 98.1347C215.949 97.8977 215.863 97.6689 215.707 97.4907C215.551 97.3126 215.335 97.1973 215.1 97.1663H195.044C194.809 97.1973 194.594 97.3126 194.437 97.4907C194.281 97.6689 194.195 97.8977 194.195 98.1347C194.195 98.3716 194.281 98.6004 194.437 98.7786C194.594 98.9567 194.809 99.072 195.044 99.103V99.103Z" fill="#CCCCCC"/>
<path d="M161.392 99.103H181.448C181.683 99.072 181.899 98.9567 182.055 98.7786C182.211 98.6004 182.297 98.3716 182.297 98.1347C182.297 97.8977 182.211 97.6689 182.055 97.4907C181.899 97.3126 181.683 97.1973 181.448 97.1663H161.392C161.157 97.1973 160.942 97.3126 160.785 97.4907C160.629 97.6689 160.543 97.8977 160.543 98.1347C160.543 98.3716 160.629 98.6004 160.785 98.7786C160.942 98.9567 161.157 99.072 161.392 99.103V99.103Z" fill="#CCCCCC"/>
<path d="M277.645 67.3422H297.7C297.935 67.3113 298.151 67.196 298.307 67.0179C298.464 66.8397 298.55 66.6109 298.55 66.3739C298.55 66.137 298.464 65.9081 298.307 65.73C298.151 65.5519 297.935 65.4366 297.7 65.4056H277.645C277.41 65.4366 277.194 65.5519 277.038 65.73C276.881 65.9081 276.795 66.137 276.795 66.3739C276.795 66.6109 276.881 66.8397 277.038 67.0179C277.194 67.196 277.41 67.3113 277.645 67.3422Z" fill="#CCCCCC"/>
<path d="M227.422 189.471H297.445C297.68 189.44 297.896 189.324 298.053 189.146C298.209 188.968 298.295 188.739 298.295 188.502C298.295 188.265 298.209 188.037 298.053 187.858C297.896 187.68 297.68 187.565 297.445 187.534H227.422C227.187 187.565 226.971 187.68 226.814 187.858C226.658 188.037 226.572 188.265 226.572 188.502C226.572 188.739 226.658 188.968 226.814 189.146C226.971 189.324 227.187 189.44 227.422 189.471H227.422Z" fill="#CCCCCC"/>
<path d="M227.762 210.774H297.785C298.02 210.743 298.236 210.627 298.392 210.449C298.549 210.271 298.635 210.042 298.635 209.805C298.635 209.568 298.549 209.339 298.392 209.161C298.236 208.983 298.02 208.868 297.785 208.837H227.762C227.527 208.868 227.311 208.983 227.154 209.161C226.998 209.339 226.912 209.568 226.912 209.805C226.912 210.042 226.998 210.271 227.154 210.449C227.311 210.627 227.527 210.743 227.762 210.774H227.762Z" fill="#CCCCCC"/>
<path d="M227.592 221.425H297.615C297.85 221.394 298.066 221.279 298.222 221.101C298.379 220.923 298.465 220.694 298.465 220.457C298.465 220.22 298.379 219.991 298.222 219.813C298.066 219.635 297.85 219.519 297.615 219.488H227.592C227.357 219.519 227.141 219.635 226.984 219.813C226.828 219.991 226.742 220.22 226.742 220.457C226.742 220.694 226.828 220.923 226.984 221.101C227.141 221.279 227.357 221.394 227.592 221.425H227.592Z" fill="#CCCCCC"/>
<path d="M197.679 210.967H217.734C217.969 210.936 218.185 210.821 218.341 210.643C218.498 210.465 218.584 210.236 218.584 209.999C218.584 209.762 218.498 209.533 218.341 209.355C218.185 209.177 217.969 209.062 217.734 209.031H197.679C197.444 209.062 197.228 209.177 197.072 209.355C196.915 209.533 196.829 209.762 196.829 209.999C196.829 210.236 196.915 210.465 197.072 210.643C197.228 210.821 197.444 210.936 197.679 210.967V210.967Z" fill="#CCCCCC"/>
<path d="M197.679 221.425H217.734C217.969 221.394 218.185 221.279 218.341 221.101C218.498 220.923 218.584 220.694 218.584 220.457C218.584 220.22 218.498 219.991 218.341 219.813C218.185 219.635 217.969 219.519 217.734 219.488H197.679C197.444 219.519 197.228 219.635 197.072 219.813C196.915 219.991 196.829 220.22 196.829 220.457C196.829 220.694 196.915 220.923 197.072 221.101C197.228 221.279 197.444 221.394 197.679 221.425V221.425Z" fill="#CCCCCC"/>
<path d="M164.027 210.967H184.082C184.317 210.936 184.533 210.821 184.689 210.643C184.846 210.465 184.932 210.236 184.932 209.999C184.932 209.762 184.846 209.533 184.689 209.355C184.533 209.177 184.317 209.062 184.082 209.031H164.027C163.792 209.062 163.576 209.177 163.419 209.355C163.263 209.533 163.177 209.762 163.177 209.999C163.177 210.236 163.263 210.465 163.419 210.643C163.576 210.821 163.792 210.936 164.027 210.967V210.967Z" fill="#CCCCCC"/>
<path d="M150.77 200.122H260.904C261.139 200.091 261.355 199.976 261.511 199.798C261.667 199.62 261.754 199.391 261.754 199.154C261.754 198.917 261.667 198.688 261.511 198.51C261.355 198.332 261.139 198.216 260.904 198.186H150.77C150.535 198.216 150.319 198.332 150.163 198.51C150.006 198.688 149.92 198.917 149.92 199.154C149.92 199.391 150.006 199.62 150.163 199.798C150.319 199.976 150.535 200.091 150.77 200.122V200.122Z" fill="#CCCCCC"/>
<path d="M277.56 200.122H297.615C297.85 200.091 298.066 199.976 298.222 199.798C298.379 199.62 298.465 199.391 298.465 199.154C298.465 198.917 298.379 198.688 298.222 198.51C298.066 198.332 297.85 198.216 297.615 198.186H277.56C277.325 198.216 277.109 198.332 276.953 198.51C276.796 198.688 276.71 198.917 276.71 199.154C276.71 199.391 276.796 199.62 276.953 199.798C277.109 199.976 277.325 200.091 277.56 200.122V200.122Z" fill="#CCCCCC"/>
<path d="M244.332 116.502L271.526 143.333L244.332 170.164L238.214 164.05L258.779 143.503L238.044 122.785L244.332 116.502Z" fill="#E6E6E6"/>
<path d="M204.222 116.502L177.029 143.333L204.222 170.164L210.341 164.05L189.776 143.503L210.511 122.785L204.222 116.502Z" fill="#E6E6E6"/>
<path d="M244.332 116.502L271.526 143.333L244.332 170.164L238.214 164.05L258.779 143.503L238.044 122.785L244.332 116.502Z" fill="#6C63FF"/>
<path d="M204.222 116.502L177.029 143.333L204.222 170.164L210.341 164.05L189.776 143.503L210.511 122.785L204.222 116.502Z" fill="#6C63FF"/>
<path d="M371.036 44.5326C371.036 44.5326 406.647 21.5541 411.098 32.5438C415.55 43.5335 384.39 63.5147 384.39 63.5147L371.036 44.5326Z" fill="#FFB9B9"/>
<path d="M488.151 73.2639C488.151 113.726 471.082 114.984 443.275 114.984C415.468 114.984 387.454 113.726 387.454 73.2639C387.454 32.8014 409.996 0 437.803 0C465.609 0 488.151 32.8014 488.151 73.2639Z" fill="#2F2E41"/>
<path d="M420.277 73.9286C420.277 73.9286 424.191 104.72 405.602 106.773C387.013 108.825 466.26 114.984 466.26 114.984C466.26 114.984 445.715 95.4825 456.477 80.0868C467.239 64.6912 420.277 73.9286 420.277 73.9286Z" fill="#FFB9B9"/>
<path d="M370.354 260.63C370.354 260.63 338.115 352.669 336.1 372.897C334.085 393.125 338.115 461.902 338.115 461.902C338.115 461.902 308.898 580.735 314.943 581.746C320.988 582.758 354.651 587.553 355.659 582.496C356.666 577.439 360.258 569.609 359.25 566.575C358.243 563.541 362.273 552.415 362.273 546.347C362.273 540.278 376.399 508.427 375.392 503.37C374.384 498.313 392.519 423.468 395.541 417.399C398.564 411.331 406.624 368.851 406.624 368.851C406.624 368.851 451.96 493.256 452.967 496.29C453.975 499.324 458.005 504.381 455.99 505.393C453.975 506.404 459.012 513.484 459.012 513.484C459.012 513.484 469.452 555.449 469.452 557.472C469.452 559.495 467.437 582.391 471.467 583.403C475.497 584.414 516.66 584.35 518.675 577.27C520.69 570.19 497.296 488.199 497.296 488.199C497.296 488.199 480.169 436.616 485.207 423.468C490.244 410.32 480.169 331.429 476.139 325.36C472.109 319.292 471.102 282.881 471.102 282.881L370.354 260.63Z" fill="#2F2E41"/>
<path d="M436.161 89.7967C418.328 89.7967 403.872 75.3333 403.872 57.4918C403.872 39.6503 418.328 25.1869 436.161 25.1869C453.993 25.1869 468.45 39.6503 468.45 57.4918C468.45 75.3333 453.993 89.7967 436.161 89.7967Z" fill="#FFB9B9"/>
<path d="M418.728 98.9308C418.728 98.9308 455.254 99.9466 457.283 96.8994C459.312 93.8522 510.042 104.009 510.042 124.324C510.042 144.639 480.619 223.866 480.619 223.866C480.619 223.866 469.458 280.747 472.502 286.841C475.546 292.935 359.881 273.637 362.925 263.479C365.969 253.322 383.217 230.976 360.896 211.677C338.575 192.378 329.443 172.063 329.443 172.063L355.823 101.978C355.823 101.978 382.202 97.915 388.29 101.978C394.378 106.041 418.728 98.9308 418.728 98.9308Z" fill="#6C63FF"/>
<path d="M337.209 177.403L330.043 172.255C330.043 172.255 263.499 102.244 280.903 88.8591C298.306 75.4745 323.9 63.1195 336.185 62.0899C348.47 61.0603 358.708 51.7941 358.708 51.7941C358.708 51.7941 372.017 28.1137 382.254 43.5574C392.492 59.0012 403.753 64.1491 389.421 69.297C375.088 74.4449 365.874 72.3858 358.708 77.5337C351.542 82.6816 323.9 90.9183 336.185 94.007C343.23 95.7243 350.089 98.1384 356.66 101.214L369.969 124.895L337.209 177.403Z" fill="#6C63FF"/>
<path d="M503.68 118.269L510.714 123.334C510.714 123.334 533.829 250.965 510.714 284.393C487.6 317.82 485.59 315.794 485.59 315.794C485.59 315.794 481.57 312.755 479.56 333.014C477.55 353.273 480.565 361.377 474.535 361.377C468.506 361.377 441.371 355.299 443.381 350.235C445.391 345.17 458.456 315.794 459.461 308.704C460.466 301.613 465.491 285.406 467.501 276.289C469.511 267.173 458.456 262.108 463.481 242.862C468.506 223.616 475.54 189.175 475.54 182.085C475.54 174.994 503.68 118.269 503.68 118.269Z" fill="#6C63FF"/>
<path d="M468.45 28.7751C468.45 39.8287 453.229 48.7895 434.455 48.7895C415.68 48.7895 398.399 54.7112 398.399 43.6576C398.399 32.6039 415.68 8.76068 434.455 8.76068C453.23 8.76068 468.45 17.7214 468.45 28.7751Z" fill="#2F2E41"/>
<path d="M391.006 96C391.006 96 389.667 135.315 425.495 133.146C461.324 130.977 420.654 99.5401 420.654 99.5401L391.006 96Z" fill="#2F2E41"/>
</g>
<defs>
<clipPath id="clip0">
<rect width="521" height="334" fill="white" transform="matrix(-1 0 0 1 521 0)"/>
</clipPath>
</defs>
</svg>
